<?xml version="1.0" encoding="UTF-8"?>
<svg width="63px" height="63px" viewBox="0 0 63 63" version="1.1" xmlns="http://www.w3.org/2000/svg" xmlns:xlink="http://www.w3.org/1999/xlink">
    <!-- Generator: Sketch 43.2 (39069) - http://www.bohemiancoding.com/sketch -->
    <title>Slice 1</title>
    <desc>Created with Sketch.</desc>
    <defs></defs>
    <g id="Page-1" stroke="none" stroke-width="1" fill="none" fill-rule="evenodd">
        <path d="M39.036274,0 L38.1343132,0.901960784 L30.6833328,8.39215686 C30.6699737,8.40493831 30.6568986,8.41801339 30.6441171,8.43137255 L22.8794113,16.1568627 C22.8521244,16.1818379 22.825955,16.2080072 22.8009799,16.2352941 L22.7225485,16.2745098 C22.7223443,16.2875809 22.7223443,16.3006544 22.7225485,16.3137255 L21.8598034,17.1764706 L15.1539211,23.8823529 C14.7920909,24.2416241 14.6835954,24.7841016 14.8794113,25.254902 C14.8794113,25.254902 16.0439979,27.9497475 16.9186269,30.9019608 C17.3559414,32.3780681 17.7199596,33.917238 17.8205877,35.1372549 C17.9212183,36.3572718 17.6618464,37.139254 17.5460779,37.254902 C15.4301212,39.3708587 13.3503521,40.3569769 11.3107838,41.2156863 C9.27121574,42.0743956 7.21250478,42.802683 5.54607792,44.4705882 C3.11164115,46.9050253 1.31409059,49.9902205 0.487254391,52.9803922 C-0.339581775,55.9705638 -0.233577358,59.0422362 1.74215635,61.0196078 C3.72021991,62.9984904 6.79044787,63.101194 9.78137204,62.2745098 C12.7722966,61.4478256 15.856818,59.6487015 18.291176,57.2156863 C19.9564547,55.5474535 21.0446053,53.1547859 22.1343132,50.8627451 C23.2240211,48.5707043 24.3436823,46.379382 25.5068622,45.2156863 C25.8025874,44.9199611 26.6022574,44.66367 27.8205877,44.745098 C29.0389181,44.8265286 30.5373325,45.1873468 31.9774505,45.6470588 C34.8576851,46.5664816 37.4284309,47.8431373 37.4284309,47.8431373 C37.9122291,48.0857822 38.4970847,47.9909407 38.8794113,47.6078431 L45.5852936,40.9019608 L46.4480387,40.0392157 C46.4753256,40.0142405 46.5014949,39.9880712 46.5264701,39.9607843 L56.2519603,30.2352941 L56.4480387,30.0784314 C56.5423409,29.9867579 56.6217309,29.8809046 56.6833328,29.7647059 L61.8598034,24.627451 L62.7617642,23.7254902 L61.8598034,22.8627451 L39.8990191,0.901960784 L39.036274,0 Z M38.9970583,3.52941176 L59.2323524,23.7647059 L54.9186269,28.0784314 L54.8794113,28.1176471 C54.8089986,28.1632849 54.743314,28.2158326 54.6833328,28.2745098 C54.693874,28.2639686 54.3364202,28.5924794 53.8990191,28.8627451 C53.461618,29.1330108 52.8921447,29.3928358 52.3303916,29.6078431 C51.7686385,29.8228505 51.2167289,29.9636191 50.8009799,29.9607843 C50.43428,29.9582381 50.2351747,29.8747206 50.0558818,29.7254902 C50.0529654,29.6859533 50.0263791,29.5887184 50.0558818,29.372549 C50.1148873,28.9402115 50.300072,28.261568 50.4872544,27.5294118 C50.6744368,26.7972555 50.8467361,26.010432 50.8401956,25.1372549 C50.8336701,24.2640778 50.5705937,23.2598099 49.8205877,22.5098039 C49.0744619,21.7646632 48.0881793,21.4829804 47.2323524,21.4901961 C46.3765256,21.497349 45.5829783,21.7062224 44.8794113,21.8823529 C44.1758442,22.0584835 43.5389676,22.2144163 43.1147054,22.2352941 C42.6904431,22.2561757 42.6088933,22.2002447 42.4872544,22.0784314 C41.8537473,21.4441236 41.6484716,20.7409255 42.291176,19.2156863 C42.6692139,18.3191592 43.3107888,16.9181917 43.7029407,15.5294118 C43.8990166,14.8350218 44.0453143,14.1510074 44.0558818,13.4509804 C44.066423,12.7509534 43.9358881,11.9591544 43.3107838,11.3333333 C42.7655088,10.7893096 42.0042012,10.5653109 41.3499995,10.5490196 C40.6957978,10.5327283 40.0836503,10.659938 39.4676465,10.8627451 C38.235639,11.2683594 37.012658,11.9681421 35.9774505,12.627451 C35.4533043,12.9615749 34.4654304,13.4668775 33.5852936,13.6862745 C32.7051568,13.9056715 32.1402213,13.8095812 31.8598034,13.5294118 C31.1233479,12.7929562 31.2063258,12.3320297 31.4284309,11.6862745 C31.650536,11.0405193 32.2149745,10.3899273 32.408823,10.1960784 C32.467534,10.1361272 32.5200846,10.0704391 32.5656858,10 C32.5940196,9.96228935 32.6202049,9.92301135 32.6441171,9.88235294 L38.9970583,3.52941176 Z M41.3107838,13.0588235 C41.4962533,13.0634491 41.4981432,13.0895774 41.5068622,13.0980392 C41.5174084,13.1436813 41.5486505,13.2409537 41.5460779,13.4117647 C41.5409328,13.7533842 41.4332999,14.2899978 41.2715681,14.8627451 C40.9481121,16.0082397 40.3661576,17.3134682 39.9774505,18.2352941 C39.0866646,20.3492706 39.3682909,22.4871705 40.7225485,23.8431373 C41.4492233,24.5708875 42.4542618,24.7853176 43.2715681,24.745098 C44.0888745,24.7048784 44.8206254,24.4855165 45.5068622,24.3137255 C46.1930991,24.1419344 46.7951596,24.0036856 47.2323524,24 C47.6695452,23.9963608 47.850792,24.0696847 48.0558818,24.2745098 C48.2558367,24.4744646 48.3269331,24.6754911 48.3303916,25.1372549 C48.3339054,25.5990187 48.2283807,26.2272151 48.0558818,26.9019608 C47.883378,27.5767065 47.6461764,28.2861026 47.5460779,29.0196078 C47.4459744,29.7531131 47.4405783,30.7180323 48.1735289,31.4509804 C48.837367,32.1148185 49.7118668,32.3795915 50.5264701,32.4313725 L45.5852936,37.372549 L25.3892152,17.1764706 L28.9970583,13.5294118 C29.1893607,14.1556831 29.5468208,14.7850566 30.0950975,15.3333333 C31.269111,16.5063341 32.9269206,16.4381716 34.2127446,16.1176471 C35.4985686,15.7971225 36.628028,15.2053271 37.3499995,14.745098 C38.2812233,14.1520151 39.3685168,13.5457581 40.2519603,13.254902 C40.693682,13.1094739 41.0894166,13.0533107 41.3107838,13.0588235 Z M23.6245093,18.9803922 L43.781372,39.1372549 L37.7029407,45.254902 C37.0615816,44.9461848 35.405436,44.0988097 32.7617642,43.254902 C31.2087841,42.759163 29.5350022,42.3393945 27.9774505,42.2352941 C26.4198988,42.1312 24.8233724,42.3305537 23.7029407,43.4509804 C22.0375716,45.1170886 20.9887622,47.4725898 19.8990191,49.7647059 C18.809276,52.056822 17.6909953,54.2843896 16.5264701,55.4509804 C14.4118084,57.564475 11.6174283,59.1513901 9.11470537,59.8431373 C6.61198249,60.5348844 4.5998575,60.2699018 3.54607792,59.2156863 C2.4949881,58.1637245 2.22671805,56.1492794 2.91862694,53.6470588 C3.61053583,51.1448383 5.19620096,48.3498767 7.3107838,46.2352941 C8.47416087,45.0708856 10.1735676,44.4209769 12.291176,43.5294118 C14.4087841,42.6378466 16.8814856,41.4881217 19.3107838,39.0588235 C20.3984663,37.9722755 20.4554113,36.4569249 20.3303916,34.9411765 C20.205372,33.4254281 19.8152732,31.7665594 19.3499995,30.1960784 C18.5475788,27.4875972 17.7345855,25.7225136 17.4676465,25.0980392 L23.6245093,18.9803922 Z M8.72254851,51.5294118 C7.33642208,51.5294118 6.21274459,52.6530899 6.21274459,54.0392157 C6.21274459,55.4253427 7.33642208,56.5490196 8.72254851,56.5490196 C10.1086749,56.5490196 11.2323524,55.4253427 11.2323524,54.0392157 C11.2323524,52.6530899 10.1086749,51.5294118 8.72254851,51.5294118 Z" id="Shape" fill="#B98B54" fill-rule="nonzero"></path>
    </g>
</svg>