<?xml version="1.0" encoding="UTF-8"?>
<svg width="62px" height="63px" viewBox="0 0 62 63" version="1.1" xmlns="http://www.w3.org/2000/svg" xmlns:xlink="http://www.w3.org/1999/xlink">
    <!-- Generator: Sketch 43.2 (39069) - http://www.bohemiancoding.com/sketch -->
    <title>Untitled</title>
    <desc>Created with Sketch.</desc>
    <defs></defs>
    <g id="Page-1" stroke="none" stroke-width="1" fill="none" fill-rule="evenodd">
        <path d="M21.2433527,0 C19.4894899,0 17.8674517,0.622064795 16.5485899,1.65373385 C16.5396504,1.66076458 16.5187545,1.64666532 16.5097902,1.65373385 L16.5097902,1.69310846 C15.4336109,2.53553787 14.6959151,3.55961177 14.1818086,4.64620462 C13.2026173,3.91222928 11.9501764,3.29238678 10.5346375,2.75622308 C8.18850035,1.86757669 5.34582514,1.25998769 2.38670192,1.25998769 C2.34792356,1.25814118 2.3090812,1.25814118 2.27030284,1.25998769 C1.79000363,1.29319153 1.37189805,1.60513721 1.19741193,2.06046417 C1.02292582,2.51579113 1.12350636,3.03243698 1.45550929,3.38621693 C4.63749397,6.90027498 6.31901878,11.1723673 6.88746631,12.79675 C6.7974951,12.8614315 6.70322898,12.9252864 6.61586846,12.9936231 C6.60687935,13.000679 6.58602808,12.9865672 6.57706877,12.9936231 L6.57706877,13.0329977 C4.78847245,14.4331049 3.86328315,16.3367686 3.51189302,18.1910723 C3.21186275,19.7743477 3.31042043,21.2743303 3.55069271,22.6010293 C0.855769095,25.0213258 -0.859305632,28.7547273 0.446717265,32.9959277 C0.446515192,33.0090518 0.446515192,33.0221783 0.446717265,33.0353023 C1.63143243,36.6421116 4.65620175,38.9090966 8.51705342,39.41399 C9.1282201,40.7873111 9.93987119,42.164048 11.1554326,43.2727024 C12.5697614,44.5626425 14.4844462,45.4776808 16.781388,45.4776808 C17.0033869,45.4776808 17.2262324,45.4549141 17.4409828,45.4383062 C21.6524952,46.4155086 26.7549777,52.0574386 27.2185055,61.8181462 C27.2240319,61.8979653 27.2370236,61.9770704 27.2573052,62.0543939 C27.2693305,62.0810943 27.2822717,62.1073601 27.2961049,62.1331431 C27.2959032,62.1462672 27.2959032,62.1593937 27.2961049,62.1725178 C27.3081302,62.1992181 27.3210714,62.2254839 27.3349046,62.251267 C27.3347029,62.2643911 27.3347029,62.2775175 27.3349046,62.2906416 C27.3596148,62.3180391 27.3855065,62.3443145 27.4125039,62.3693908 C27.4123022,62.3825149 27.4123022,62.3956414 27.4125039,62.4087655 C27.4372142,62.4361629 27.4631059,62.4624383 27.4901033,62.4875147 C27.4899016,62.5006388 27.4899016,62.5137652 27.4901033,62.5268893 C27.5155099,62.5409275 27.5413922,62.5540604 27.5677027,62.5662639 C27.567501,62.579388 27.567501,62.5925145 27.5677027,62.6056385 C27.6147531,62.6626841 27.6666889,62.7153894 27.7229015,62.763137 C27.7358339,62.7633417 27.7487687,62.7633417 27.7617012,62.763137 C27.8226906,62.8084204 27.8876262,62.8479591 27.9556996,62.8812608 C28.0778038,62.9418834 28.2088734,62.9817869 28.3436966,62.9993847 C28.3695567,63.0002051 28.3954358,63.0002051 28.421296,62.9993847 C28.4342284,62.9995894 28.4471632,62.9995894 28.4600957,62.9993847 C28.4859558,63.0002051 28.5118349,63.0002051 28.537695,62.9993847 C28.537695,62.9993847 33.6892588,62.6544089 39.3628094,59.8494154 C45.03636,57.044422 51.3747598,51.6462971 53.6410965,41.8552162 C55.3193328,34.2858653 56.3684355,29.128427 57.4822661,25.5541254 C58.5960966,21.9798238 59.7027247,20.0751496 61.5174342,18.6241931 C61.9120518,18.3147669 62.0859717,17.7957815 61.9590583,17.3063645 C61.832145,16.8169476 61.4290245,16.452065 60.9354388,16.37984 C59.5356216,16.1430808 58.2933522,16.1275842 57.1718685,16.2617162 C53.8743913,16.6561011 51.6161473,18.3842221 49.528329,20.0416793 C49.2747354,19.7464314 49.0182986,19.4783337 48.7523351,19.2148123 C48.9991422,17.6398265 49.0883057,15.9492216 48.7135354,14.2536108 C48.2869449,12.3235456 47.22931,10.4345393 45.2991624,9.05616155 C43.8436748,8.02222333 42.2346919,7.55992616 40.6431993,7.55992616 C40.4817789,7.55992616 40.3348913,7.59039506 40.177603,7.59930078 C39.9035455,5.34232086 38.8829882,3.07584907 36.6080312,1.49623539 C35.1525436,0.462297209 33.4937096,0 31.7968693,0 C29.6481733,0 27.904566,0.819190399 26.4813113,1.65373385 C25.0826587,0.795811163 23.2794328,0 21.2433527,0 Z M21.2433527,2.51997539 C22.8677662,2.51997539 24.6936698,3.3093762 25.7441171,4.05558539 C26.1575713,4.35854328 26.7115171,4.37415867 27.1409061,4.09496 C28.3916381,3.28724615 30.0269949,2.51997539 31.7968693,2.51997539 C33.0798454,2.51997539 34.1835495,2.81367083 35.2112423,3.54371539 C36.9302636,4.73731622 37.5842886,6.29991415 37.7332223,8.07179616 C36.8270639,8.38217208 36.009771,8.79093376 35.2888416,9.21366001 C33.8326339,8.36848987 31.9963717,7.55992616 29.934484,7.55992616 C28.1806212,7.55992616 26.5585829,8.18199091 25.2397211,9.21366001 C25.2307817,9.22069074 25.2098857,9.20659148 25.2009214,9.21366001 L25.2009214,9.25303463 C24.3757047,9.89901104 23.7470119,10.6519576 23.2609368,11.4580131 C22.8758688,11.3943295 22.460907,11.3398892 22.0193466,11.3398892 C19.8706506,11.3398892 18.0882437,12.1590797 16.664989,12.9936231 C16.3872266,12.8324114 16.0769421,12.6743183 15.772596,12.5211277 C16.0169162,12.2113254 16.103172,11.8028337 16.0053942,11.4186385 C15.7459577,10.3128584 15.6111831,8.92407704 15.8113957,7.59930078 C15.9382222,7.37225551 15.9924517,7.11084859 15.9665945,6.85118308 C16.2782076,5.63705491 16.8858468,4.53886413 18.0229782,3.66183923 C18.0361957,3.64900599 18.0491321,3.63587792 18.0617779,3.62246462 C18.9731473,2.90311862 20.0293532,2.51997539 21.2433527,2.51997539 Z M5.06388074,4.01621077 C6.72485525,4.23812031 8.33768449,4.60987565 9.68104421,5.11870001 C11.4756858,5.79845631 12.7838575,6.69481685 13.3670151,7.32367847 C13.1722158,8.71271498 13.2727535,10.0402228 13.4834141,11.2217654 C13.3524785,11.3408354 13.2308412,11.4542835 13.0954172,11.5761369 C12.5233483,11.4521844 11.9271762,11.3398892 11.3106313,11.3398892 C10.5433161,11.3398892 9.8015506,11.4739182 9.09904882,11.6942608 C8.5047926,10.1024878 7.23761399,7.08318525 5.06388074,4.01621077 Z M29.934484,10.0799015 C31.5588974,10.0799015 33.4072701,10.8657418 34.6292469,11.6548862 C35.0326148,11.911532 35.5450684,11.911532 35.9484364,11.6548862 C36.8774302,11.0549484 38.0233012,10.4555027 39.28521,10.1980254 C39.2981425,10.1982305 39.3110773,10.1982305 39.3240097,10.1980254 C39.7493934,10.1134733 40.2007313,10.0799015 40.6431993,10.0799015 C41.783205,10.0799015 42.8746808,10.373597 43.9023735,11.1036416 C45.3245194,12.1192404 45.9895909,13.3644538 46.3079545,14.8048554 C46.6263181,16.245257 46.5205718,17.8801943 46.2303551,19.4116854 C46.145573,19.8473037 46.2929718,20.2960522 46.618352,20.5929239 C48.6654859,22.4395618 50.3529026,24.9238077 49.4895293,28.4284723 C48.7525822,31.3131008 46.4798216,33.1588794 42.8159821,33.27155 C42.3194904,33.2820973 41.8769384,33.591828 41.690791,34.0590423 C41.1867141,35.3663275 40.4006211,36.6955943 39.3628094,37.6421323 C39.3274464,37.6743855 39.28226,37.6894676 39.2464103,37.7208816 C38.9950533,37.8070346 38.7774945,37.9726215 38.6256152,38.193377 C37.7394961,38.7953651 36.7068394,39.1777423 35.4052407,39.1777423 C33.729094,39.1777423 32.4854837,38.5886704 31.447672,37.6421323 C31.1061764,37.3306697 30.8023853,36.9589418 30.5164794,36.5790177 C30.469089,36.1818779 30.2386951,35.8311662 29.8956843,35.634027 C29.5987729,35.121527 29.3250432,34.5916089 29.1196904,34.0590423 C28.93925,33.6045057 28.5155093,33.2973489 28.033299,33.27155 C25.3567907,33.0963135 23.4642472,32.0942856 22.2909445,30.2790793 C22.2789191,30.2523789 22.265978,30.2261131 22.2521448,30.20033 C22.2462261,30.1909078 22.2580249,30.1704192 22.2521448,30.1609554 C22.1967364,29.953334 22.0898789,29.7635624 21.9417472,29.6097108 C21.9334422,29.5931961 21.9111544,29.5869605 21.9029475,29.5703362 C21.8903017,29.5569229 21.8773653,29.5437948 21.8641478,29.5309616 C21.7052466,29.2030725 21.5588532,28.8377529 21.4373512,28.467847 C21.0308968,27.1479191 20.9739066,25.9474394 21.2045531,24.8453823 C21.2177705,24.8325491 21.2307069,24.819421 21.2433527,24.8060077 C21.246006,24.7937997 21.2406324,24.7788134 21.2433527,24.7666331 C21.5171613,24.4871716 21.6463682,24.0938071 21.59255,23.7035185 C22.1387839,22.3697699 23.0792884,21.211443 24.2697288,20.2779269 C24.6517706,19.9679244 24.8188732,19.4591884 24.6965254,18.9785646 C24.4190412,17.7958608 24.2749696,16.2891877 24.5413267,14.8836046 C24.8076838,13.4780216 25.4294659,12.212561 26.7141095,11.2217654 C26.7273269,11.2089322 26.7402633,11.1958041 26.7529092,11.1823908 C27.6642786,10.4630448 28.7204844,10.0799015 29.934484,10.0799015 Z M11.3106313,13.8598646 C12.9350447,13.8598646 14.7834174,14.6457051 16.0053942,15.4348492 C16.4087622,15.6914951 16.9212158,15.6914951 17.3245837,15.4348492 C18.5753158,14.6271354 20.2494722,13.8598646 22.0193466,13.8598646 C22.1035364,13.8598646 22.2023905,13.8922955 22.2909445,13.8992392 C22.2478799,14.0728353 22.1685646,14.2379239 22.1357457,14.4111092 C21.8357154,15.9943846 21.9342729,17.4943672 22.1745454,18.8210662 C21.1771599,19.7168128 20.3168484,20.795768 19.691365,22.01041 C18.8877309,21.6357766 18.0345598,21.4197908 17.169385,21.4197908 C13.852565,21.4197908 11.1942322,24.2986712 11.1942322,27.7197293 C11.1942322,31.1407874 13.852565,34.0196677 17.169385,34.0196677 C18.6551426,34.0196677 19.9564992,33.4314173 20.9717549,32.5234323 C22.4984701,34.2177554 24.6371774,35.3066078 27.1409061,35.634027 C27.2349317,35.8453067 27.3470473,36.0535676 27.4513036,36.2640208 C27.3396499,36.3137336 27.2179132,36.3369161 27.1021064,36.3821447 C27.0504241,36.3788606 26.9985899,36.3788606 26.9469076,36.3821447 C26.6280982,36.3846813 26.3224649,36.5115657 26.0933144,36.7365162 C25.4993476,36.8857542 24.8672962,37.0062292 24.1533297,37.0515131 C23.6711195,37.077312 23.2473788,37.3844687 23.0669383,37.8390054 C22.5628614,39.1462905 21.7767684,40.4755574 20.7389567,41.4220954 C19.8826767,42.2030673 18.8600161,42.714771 17.5961816,42.8789562 C17.5558498,42.8714177 17.5201268,42.846572 17.4797825,42.8395816 C17.3639645,42.8228892 17.2464033,42.8228892 17.1305853,42.8395816 C16.9430531,42.8368211 16.7573409,42.8772063 16.5873896,42.9577054 C15.0142365,42.9114853 13.8188173,42.3295852 12.8238194,41.4220954 C11.7860073,40.4755574 10.9999151,39.1462905 10.4958378,37.8390054 C10.3153973,37.3844687 9.89165663,37.077312 9.40944636,37.0515131 C5.94741456,36.8248464 3.78551292,35.2070625 2.81349854,32.24781 C1.72961937,28.7280029 3.21601885,25.9633291 5.64587614,24.05789 C6.02791795,23.7478875 6.19502054,23.2391515 6.07267276,22.7585277 C5.79518828,21.5758239 5.65111639,20.0691508 5.91747399,18.6635677 C6.18383158,17.2579847 6.80561386,15.9925236 8.0902568,15.0017285 C8.10347424,14.9888952 8.11641063,14.9757672 8.12905649,14.9623539 C8.3276882,14.8055736 8.53732573,14.6929622 8.74985158,14.5686077 C8.95444147,14.5123783 9.14144214,14.4039374 9.29304728,14.2536108 C9.90824839,13.99032 10.585639,13.8598646 11.3106313,13.8598646 Z M35.6768386,17.6398277 C32.3648148,17.6398277 29.7016858,20.5093779 29.7016858,23.9397662 C29.7016858,27.3701545 32.3648148,30.2397046 35.6768386,30.2397046 C38.9888623,30.2397046 41.6131916,27.3701545 41.6131916,23.9397662 C41.6131916,20.5093779 38.9888623,17.6398277 35.6768386,17.6398277 Z M58.1418609,18.7816916 C56.9352972,20.3627909 55.9180611,22.2305248 55.1154848,24.8060077 C53.9323735,28.6026341 52.8707729,33.7534701 51.1967158,41.3039716 C49.1174868,50.2867073 43.4978212,54.9842338 38.276418,57.5656878 C36.3533699,58.5164392 34.7618375,58.9402827 33.1936582,59.3769201 C34.3526876,58.108469 35.5137843,56.6659935 36.5692315,54.8488393 C38.8320234,50.9530115 40.5922879,45.7947126 40.8371977,39.6502377 C40.8988613,39.5970096 40.9713168,39.5473522 41.0311962,39.4927393 C42.2375439,38.3924878 43.0590755,37.0362635 43.6695753,35.6734016 C47.7972878,35.2569895 50.954674,32.739611 51.8951103,29.0584662 C51.8953123,29.0453421 51.8953123,29.0322156 51.8951103,29.0190916 C52.5499038,26.3611047 52.0293498,24.0601479 51.0027173,22.1679085 C53.318329,20.3283882 55.0447117,18.8694207 58.1418609,18.7816916 Z M35.6768386,20.1598031 C37.5762207,20.1598031 39.1300113,21.8031786 39.1300113,23.9397662 C39.1300113,26.0763538 37.5762207,27.7197293 35.6768386,27.7197293 C33.7774564,27.7197293 32.1848662,26.0763538 32.1848662,23.9397662 C32.1848662,21.8031786 33.7774564,20.1598031 35.6768386,20.1598031 Z M17.169385,23.9397662 C17.7584512,23.9397662 18.3285125,24.1031437 18.8377718,24.3728869 C18.5130351,25.8683915 18.542539,27.5012272 19.0705699,29.2159646 C19.0703679,29.2290887 19.0703679,29.2422152 19.0705699,29.2553393 C19.2002205,29.6500531 19.3637578,30.0351343 19.5361663,30.3972031 C18.8983999,31.0682272 18.1098759,31.4996923 17.169385,31.4996923 C15.2715262,31.4996923 13.6774126,29.842617 13.6774126,27.7197293 C13.6774126,25.5968415 15.2715262,23.9397662 17.169385,23.9397662 Z M29.2748892,38.9808693 C29.4374879,39.1554733 29.599714,39.328961 29.7792852,39.4927393 C31.1936141,40.7826794 33.1082989,41.6977177 35.4052407,41.6977177 C36.4458671,41.6977177 37.4036919,41.5112496 38.276418,41.1858477 C37.8344914,46.1792987 36.3062987,50.3674814 34.4352484,53.5888516 C33.7363138,54.7922016 32.9839251,55.8503203 32.2236659,56.7781954 C32.2575774,55.2147347 32.2474386,53.270425 32.1072668,51.1082508 C31.8460362,47.0787106 31.1584063,42.4933307 29.2748892,38.9808693 Z M26.520111,39.1777423 C28.4155027,42.0434029 29.3444853,46.9528303 29.6240865,51.2657493 C29.9014577,55.5442706 29.6712681,58.8232916 29.6240865,59.4162947 C29.5890028,59.4454256 29.5424954,59.4666816 29.5076874,59.4950439 C28.6342411,52.025193 25.1974686,46.7199657 21.1269537,44.2570677 C21.5881113,43.9706637 22.019138,43.6267665 22.4073435,43.2727024 C23.6136912,42.1724509 24.4352228,40.8162266 25.0457227,39.4533647 C25.5589712,39.3939877 26.0406722,39.2870778 26.520111,39.1777423 Z" id="Shape" fill="#B98B54" fill-rule="nonzero"></path>
    </g>
</svg>