<?xml version="1.0" encoding="UTF-8"?>
<svg width="456px" height="398px" viewBox="0 0 456 398" version="1.1" xmlns="http://www.w3.org/2000/svg" xmlns:xlink="http://www.w3.org/1999/xlink">
    <!-- Generator: Sketch 44.1 (41455) - http://www.bohemiancoding.com/sketch -->
    <title>Untitled</title>
    <desc>Created with Sketch.</desc>
    <defs></defs>
    <g id="Page-1" stroke="none" stroke-width="1" fill="none" fill-rule="evenodd" opacity="0.07">
        <path d="M230.9041,302.579063 L342.495608,0 L455.252562,0 L455.252562,11.363104 L409.363104,11.363104 L409.363104,378.915813 L455.252562,378.915813 L455.252562,390.86164 L296.606149,390.86164 L296.606149,378.915813 L342.495608,378.915813 L342.495608,35.8374817 L210.071742,398 L199.291362,398 L60.8945827,38.7510981 L60.8945827,329.384334 C60.8945827,342.20431 63.5168113,353.130262 68.761347,362.162518 C74.0058827,371.194774 86.4857482,376.77915 106.201318,378.915813 L106.201318,390.86164 L0,390.86164 L0,378.915813 C19.4242064,378.915813 32.34111,373.331437 38.7510981,362.162518 C45.1610862,350.9936 48.3660322,339.873408 48.3660322,328.801611 L48.3660322,45.306735 C48.3660322,22.6775345 36.2260853,11.363104 11.9458272,11.363104 L1.16544656,11.363104 L1.74816984,0 L114.505124,0 L230.9041,302.579063 Z" id="M" fill="#FFFFFF"></path>
    </g>
</svg>