<?xml version="1.0" encoding="UTF-8"?>
<svg width="35px" height="35px" viewBox="0 0 35 35" version="1.1" xmlns="http://www.w3.org/2000/svg" xmlns:xlink="http://www.w3.org/1999/xlink">
    <!-- Generator: Sketch 43.2 (39069) - http://www.bohemiancoding.com/sketch -->
    <title>Slice 1</title>
    <desc>Created with Sketch.</desc>
    <defs></defs>
    <g id="Page-1" stroke="none" stroke-width="1" fill="none" fill-rule="evenodd">
        <g id="Group-3" fill-rule="nonzero" fill="#FFFFFF">
            <path d="M16.2312535,0 C14.7466595,0 13.8420644,0.246214763 13.2562541,0.612117427 C13.0391163,0.74774383 12.8966229,0.9142716 12.7750042,1.0712055 C12.3300766,1.03589017 11.9223148,1.06880726 11.5500044,1.20237352 C11.2527026,1.30903054 11.0141069,1.51184568 10.8062546,1.74890693 C10.0095399,1.54000798 9.24883467,1.37726421 8.77187996,1.37726421 C8.16631428,1.37726421 7.74375516,1.50843223 7.74375516,1.50843223 L7.76563015,1.53029357 C7.59833158,1.518187 7.55063149,1.46019794 7.30625524,1.59587758 C7.07402678,1.72481294 6.85336064,1.96995289 6.75938034,2.25171768 C6.6807768,2.487381 6.69433894,2.7583176 6.71563035,3.0387258 C6.34318555,3.80359219 6.31818043,4.58953992 6.56250538,5.15927545 C6.84391254,5.81548219 7.21196316,6.20891938 7.61250518,6.44909432 C7.91539147,6.62735858 8.30259251,6.56286537 8.53125501,6.29606496 C8.66971428,6.12694272 9.03901811,5.94325817 9.49375482,5.9025609 C9.94849154,5.86186384 10.4644936,5.9504005 10.8062546,6.12117427 C10.8484576,6.14226119 10.9308259,6.22394102 10.9812545,6.40537164 C11.0278045,6.57284606 11.0092055,6.78443855 10.9812545,6.93004372 C10.8877227,7.15645162 10.8188161,7.21330718 10.7625046,7.23610244 C10.7016186,7.26074803 10.5848523,7.2812802 10.4125047,7.23610244 C10.0678086,7.14574691 9.69062979,6.86445971 9.69062979,6.86445971 C9.45952798,6.67953506 9.13914854,6.65357457 8.88125494,6.7988757 C8.88125494,6.7988757 8.75386826,6.88883052 8.66250498,6.9737664 C8.5711417,7.05870241 8.47829862,7.16337799 8.37813004,7.32354778 C8.20427037,7.60154983 8.07082519,8.05971518 8.00625511,8.59150531 C7.89084683,8.7601594 7.77679515,8.91971148 7.74375516,9.11617739 C7.69362116,9.41429397 7.76014915,9.69411208 7.85313013,9.90318551 C8.0118369,10.2600521 8.21481657,10.4674871 8.33438004,10.6027483 C7.93646862,10.7953435 7.55121389,11.0059882 7.19688026,11.2804497 C6.25199034,12.0123463 5.57813056,13.1596299 5.57813056,14.7126796 C5.57813056,16.2353612 6.33890631,17.3141542 7.06563028,17.9262961 C7.38038942,18.1914276 7.68232807,18.3848609 7.94063012,18.5165522 C8.0313816,18.6629888 8.14478368,18.7804356 8.22500506,18.8663335 C8.29819005,18.9446972 8.37350094,19.0667254 8.44375502,19.1505309 C8.0124613,20.5029683 7.72270616,22.1166666 7.70000516,24.0693317 C7.20248516,25.2825225 6.62559462,26.2798507 6.14688046,26.8894441 C5.90389132,27.1988656 5.67760804,27.4164226 5.55625557,27.5015615 C5.49557937,27.5441306 5.47498292,27.5330034 5.51250558,27.5234229 C4.96136474,27.4507411 4.38201951,27.4761268 3.89375588,27.7638976 C3.47965976,28.0079554 3.21761096,28.4732346 2.97500606,28.9444097 L2.95313106,28.9225484 C2.60803064,29.2268589 2.32853952,29.5604685 2.14375621,29.9281699 C2.01440793,30.1855607 1.94274194,30.4933516 1.96875625,30.8026234 L0.700006487,30.8026234 C0.678143519,30.8015981 0.656244469,30.8015981 0.6343815,30.8026234 C0.27363266,30.8366017 -0.00155578656,31.1400683 6.61976999e-06,31.5021861 L6.61976999e-06,34.3004372 C4.52722964e-05,34.6867791 0.313423247,34.9999614 0.700006487,35 L9.73437978,35 L34.3000001,35 C34.6865834,34.9999614 34.9999613,34.6867791 35,34.3004372 L35,31.5021861 C34.9999613,31.1158443 34.6865834,30.802662 34.3000001,30.8026234 L29.968751,30.8026234 C30.0573989,30.566947 30.1218759,30.3152806 30.1218759,30.0374766 C30.1218759,29.6001862 29.9107196,29.213861 29.662501,28.9444097 C30.360032,28.9541596 31.054415,28.8176511 31.6750006,28.5290443 C32.7426747,28.0325164 33.6218753,27.0096178 33.6218753,25.6870706 C33.6218753,24.2265682 32.9685563,23.2429899 32.3312505,22.4953154 C32.1190105,22.2463194 31.929501,22.0410501 31.7406256,21.817614 C32.0280953,21.3249959 31.986635,20.6606449 31.5656256,19.9594004 C31.077697,19.1670112 29.7500444,18.6308446 29.4000011,18.4946908 C29.3968532,18.4897897 29.4031567,18.4777285 29.4000011,18.4728295 C28.0332107,16.3508023 25.8898048,14.4048041 22.8593773,12.8326046 C22.9315991,12.74499 23.0098787,12.6623604 23.0781273,12.5702686 C24.2955614,10.9275119 24.7609038,8.60830741 24.0843771,5.46533417 C23.6214035,3.38325487 22.3889417,1.94976036 20.9125027,1.11492817 C19.4360636,0.28009598 17.7279324,0 16.2312535,0 Z M16.2312535,1.44284822 C17.5345742,1.44284822 19.0070673,1.71365792 20.1906278,2.3828857 C21.3741883,3.05211347 22.2854761,4.0758332 22.6625023,5.77139288 C23.2809753,8.64465949 22.8625679,10.4441308 21.9187525,11.7176765 C20.9749371,12.9912221 19.4153422,13.7994109 17.6312533,14.3628982 C15.8471643,14.9263855 13.8559076,15.230277 12.1406293,15.6308557 C10.7092591,15.9651313 9.43499194,16.3385481 8.59687999,17.1611493 C8.41301033,17.0794075 8.29356585,17.0718046 7.98438011,16.8113679 C7.4861041,16.3916547 7.02188029,15.7783802 7.02188029,14.7126796 C7.02188029,13.5374344 7.42427032,12.9358111 8.09375509,12.4172392 C8.76323986,11.8986673 9.76621087,11.539602 10.8500046,11.1930044 C11.0082381,11.1424008 11.1710189,11.0907136 11.3312545,11.039975 C11.5298362,11.0591389 11.7275721,10.9959029 11.8781294,10.8650843 C12.6358764,10.6142876 13.3882335,10.3269394 14.065629,9.90318551 C15.0449295,9.29057139 15.8596719,8.28294916 15.9906286,6.88632105 C15.9913286,6.87878256 15.9899608,6.87202199 15.9906286,6.86445971 C16.0493726,6.20238119 15.8764992,5.61058781 15.5968787,5.20299813 C15.3137721,4.79032675 14.9781103,4.5430567 14.7218788,4.30668332 C14.2264343,3.84963553 13.880087,3.45439249 13.912504,1.9675203 C13.930473,1.94373866 13.942527,1.89957876 14.043754,1.83635228 C14.2979435,1.67758287 14.9158481,1.44284822 16.2312535,1.44284822 Z M12.4250043,2.49219238 C12.4308591,2.49206198 12.4409216,2.49227213 12.4468793,2.49219238 C12.5502867,4.00440533 13.19062,4.87338821 13.737504,5.37788882 C14.0500225,5.66618752 14.280923,5.86926101 14.3937539,6.03372892 C14.5065848,6.19819683 14.5867544,6.32150491 14.5468789,6.73329169 C14.4612402,7.70326066 14.0347926,8.21929384 13.3000041,8.67895066 C12.811659,8.98444132 12.1587278,9.23193194 11.4625045,9.46595878 C11.2887169,9.36973532 11.0815498,9.27099973 10.8062546,9.20362274 C10.3695016,9.09672954 9.80091827,9.16468507 9.20937988,9.37851343 C9.20636988,9.37389631 9.18986388,9.36059063 9.18750488,9.35665209 C9.31837726,9.22955334 9.39648875,9.05781538 9.40625484,8.87570269 C9.42510584,8.5742359 9.48603383,8.50244187 9.53750482,8.37289194 C9.74358478,8.4835166 9.74744318,8.55837472 10.0406297,8.63522798 C10.402032,8.72996277 10.8518288,8.77672645 11.3093795,8.59150531 C11.7669302,8.40628417 12.1499519,7.9691169 12.3593793,7.41099313 C12.3759156,7.38286209 12.3905322,7.35364718 12.4031293,7.32354778 C12.507612,6.90587831 12.5058256,6.46004345 12.3812543,6.01186758 C12.256683,5.56369171 11.9803042,5.09009352 11.4625045,4.8313554 C10.8242656,4.5124353 10.0802679,4.39547554 9.36250485,4.45971268 C8.92311493,4.49903643 8.50696011,4.66011111 8.11563008,4.87507808 C8.0159039,4.76177794 7.96182051,4.74231414 7.89688013,4.5908807 C7.75828715,4.26769956 7.70832606,3.98678971 8.0281301,3.5196752 C8.12490267,3.37108411 8.16381567,3.19219605 8.13750508,3.01686446 C8.12817408,2.94227792 8.13734758,2.95330289 8.13750508,2.90755778 C8.1597156,2.9013181 8.18161551,2.89402269 8.20313007,2.88569644 C8.20313007,2.88569644 8.32744584,2.82011243 8.77187996,2.82011243 C9.21631408,2.82011243 9.91254304,2.90861167 10.8937546,3.23547783 C11.0764972,3.29668132 11.2761018,3.28266631 11.4484861,3.19652799 C11.6208704,3.11038967 11.7518522,2.95921469 11.8125044,2.77638976 C11.8512634,2.66018489 11.8841165,2.61840987 12.0531293,2.55777639 C12.1376361,2.52745979 12.2649724,2.4957563 12.4250043,2.49219238 Z M15.9687536,2.73266708 C15.5963518,2.77780545 15.3198683,3.0993359 15.3312307,3.47406047 C15.3425931,3.84878504 15.6380502,4.15299478 16.0125036,4.1755153 C16.1855016,4.1971269 16.4579653,4.26374745 16.6687535,4.37226733 C16.7412497,4.40959041 16.7276165,4.42066379 16.7781284,4.45971268 C16.7568345,4.49660972 16.7603344,4.51113264 16.7343785,4.54715803 C16.6227138,4.70215141 16.4690225,4.8286956 16.4281285,4.85321674 C16.2053271,4.98595917 16.0703287,5.22742271 16.0740004,5.48662451 C16.077672,5.7458263 16.2194557,5.98337407 16.4459277,6.10976039 C16.6723997,6.23614672 16.9491418,6.23216401 17.1718784,6.09931293 C17.4809843,5.91396524 17.712293,5.66012217 17.9156282,5.37788882 C18.1189635,5.09565547 18.2880583,4.80616436 18.3531281,4.41599001 C18.3821588,4.25990793 18.3591029,4.09861721 18.2875032,3.95690194 C18.0600004,3.50218033 17.6917151,3.2931041 17.3250033,3.10430981 C16.9582916,2.91551551 16.5745055,2.78101212 16.1875036,2.73266708 C16.1150064,2.72161291 16.0412508,2.72161291 15.9687536,2.73266708 L15.9687536,2.73266708 Z M21.7875025,13.8819488 C25.9186798,15.912322 28.1879555,18.5596613 29.2468761,21.3366646 C29.2522094,21.3573591 29.2630489,21.3827532 29.2687511,21.4022486 C29.3077159,21.5354663 29.3533461,21.6258149 29.4000011,21.7083073 C29.8342495,22.9824378 30.0125009,24.2767247 30.0125009,25.5559026 C30.0125009,26.4336559 29.6832945,26.7292498 29.1812511,26.9550281 C28.6792077,27.1808064 27.9351099,27.1847554 27.5406264,27.0861961 C27.3251776,27.0337165 27.0975442,27.0826394 26.9227304,27.2189942 C26.7479166,27.3553491 26.6451406,27.5641457 26.6437516,27.7857589 C26.6437516,28.295142 26.8941177,28.7576706 27.1906265,29.0318551 C27.4871352,29.3060396 27.8088944,29.4501027 28.0656263,29.5783885 C28.3223583,29.7066743 28.5280812,29.8321234 28.6125012,29.9063086 C28.6969212,29.9804937 28.6781262,29.9461906 28.6781262,30.0374766 C28.6781262,30.4159659 28.6173172,30.4248315 28.5031262,30.4965646 C28.3889346,30.5682978 28.1003337,30.6277327 27.7812514,30.6277327 C27.3421008,30.6277327 26.7968717,30.4965646 25.5500018,30.4965646 C23.1256236,30.4965646 23.1281233,30.6155393 19.4906279,30.6277327 C19.5062029,30.5167834 19.5179559,30.3290578 19.9718778,30.1249219 C20.1108874,30.060148 20.2257669,29.9529942 20.3000028,29.8188632 C20.4561882,29.5327015 20.4400455,29.5814155 20.6718777,29.4690818 C20.8992454,29.3589119 21.3780943,29.1710842 22.0062525,28.7695191 C21.9663805,28.7934301 22.0624694,28.7514214 22.2687524,28.7695191 C22.4750354,28.7876167 22.7637888,28.8317032 23.0562523,28.9225484 C23.6411784,29.1042361 24.263444,29.3945994 24.587502,29.5565272 C24.9154014,29.7143055 25.3095304,29.6047628 25.5088386,29.3004542 C25.7081468,28.9961457 25.6508942,28.5913377 25.3750018,28.3541537 C25.3303348,28.3177834 25.2889935,28.3017914 25.2437518,28.2667083 C25.2380818,28.2638401 25.2276798,28.2477362 25.2218768,28.244847 C24.1936099,27.4545411 23.0238738,26.9683982 22.1812524,26.364772 C21.2943722,25.729441 20.7375027,25.0988096 20.7375027,23.6758276 C20.7375027,22.32092 22.6446565,20.5587956 25.3531268,21.3585259 C25.7397261,21.467189 26.1412706,21.242073 26.2500016,20.8557152 C26.3587327,20.4693573 26.133476,20.0680635 25.7468768,19.9594004 C22.920194,19.124766 20.3996793,20.4343475 19.5781279,22.3422861 C18.0376298,20.8634139 16.2229999,20.534981 15.1156288,20.4184884 C14.8114975,20.3912479 14.5228756,20.5573203 14.3937539,20.8338538 C13.5774197,22.5334885 12.5783476,24.1554548 11.2437545,25.5559026 C11.1640946,25.635741 11.1041729,25.7330529 11.0687545,25.8400999 C10.7941089,26.7550147 10.1339439,27.9463582 9.42812984,28.9006871 C9.0752228,29.3778518 8.69278838,29.7944765 8.37813004,30.1030606 C8.06347169,30.4116447 7.78019155,30.5928665 7.74375516,30.6058713 C7.63066038,30.6435449 7.28488564,30.7441182 6.34375542,30.8026234 L4.00313086,30.8026234 C3.81742748,30.7788998 3.66760028,30.7514503 3.56563095,30.715178 C3.46366168,30.6789064 3.41120523,30.6460094 3.39063098,30.6277327 C3.39366331,30.6154861 3.40941925,30.6118204 3.43438097,30.5621487 C3.49678526,30.43797 3.66573142,30.2359768 3.91563088,30.0156152 C4.00044999,29.9443511 4.06779889,29.8546087 4.11250584,29.7532792 C4.28123479,29.3317206 4.46362081,29.1343389 4.63750574,29.0318551 C4.81139068,28.9293712 5.02175331,28.8706381 5.35938061,28.9225484 L5.35938061,28.8788257 C5.53550932,28.9156087 5.72344942,28.9799147 5.86250551,28.9444097 C6.07448129,28.8902846 6.23161915,28.7914405 6.38750541,28.6820737 C6.69927786,28.46334 6.98486948,28.1671556 7.28438024,27.7857589 C7.88340163,27.0229661 8.53062781,25.9218047 9.0781299,24.5721424 C9.11156059,24.4812811 9.12643667,24.3846469 9.12187989,24.287945 C9.12187989,22.1972191 9.46792903,20.5390756 9.93125474,19.2161149 C10.0020921,19.0026672 9.96976597,18.7684493 9.84375476,18.5821362 C9.74063288,18.4275496 9.6475994,18.3167598 9.55937981,18.2104934 C10.0416258,17.7783952 11.1011589,17.3763327 12.4906293,17.0518426 C14.1266003,16.6697855 16.1428429,16.3484427 18.0687532,15.7401624 C19.4052209,15.3180518 20.7054371,14.741298 21.7875025,13.8819488 Z M15.4218787,21.9706433 C16.633841,22.1271698 18.0974917,22.4804924 19.337503,24.3316677 C19.5306672,25.8149479 20.360823,26.8391854 21.3062526,27.5234229 C21.2916926,27.5315238 21.2770626,27.5146923 21.2625026,27.5234229 C21.2550562,27.5305537 21.2477629,27.5378425 21.2406276,27.5452842 C20.6980906,27.8961184 20.3831705,27.9899102 20.0375028,28.1574016 C19.760935,28.2914113 19.4771858,28.5880343 19.228128,28.9225484 C18.460359,29.3337444 17.9877919,29.9888297 17.9593782,30.6277327 C17.9568253,30.685143 17.9563682,30.7467024 17.9593782,30.8026234 L9.71250478,30.8026234 C10.0042255,30.4883742 10.297858,30.1449091 10.5875046,29.7532792 C11.3260199,28.7547352 11.9851776,27.5778642 12.3593793,26.4522174 C13.6470696,25.0822811 14.6165009,23.5551069 15.4218787,21.9706433 Z M31.3031257,23.5446596 C31.8216632,24.1626428 32.1781255,24.6887203 32.1781255,25.6870706 C32.1781255,26.3932554 31.7623263,26.8919059 31.0625007,27.2173641 C31.0363844,27.22951 31.0017744,27.2278282 30.9750008,27.2392255 C31.2684743,26.7833512 31.4562507,26.2165571 31.4562507,25.5559026 C31.4562507,24.8867883 31.407033,24.2215649 31.3031257,23.5446596 Z M1.40000635,32.2017489 L3.56563095,32.2017489 C3.89293555,32.2655322 4.25212733,32.2891943 4.68125573,32.2891943 C5.58975021,32.2891943 6.22088465,32.2450609 6.73750535,32.2017489 L33.6000003,32.2017489 L33.6000003,33.6008745 L9.73437978,33.6008745 L1.40000635,33.6008745 L1.40000635,32.2017489 Z" id="Shape"></path>
        </g>
    </g>
</svg>