<?xml version="1.0" encoding="UTF-8"?>
<svg width="29px" height="39px" viewBox="0 0 29 39" version="1.1" xmlns="http://www.w3.org/2000/svg" xmlns:xlink="http://www.w3.org/1999/xlink">
    <!-- Generator: Sketch 43.2 (39069) - http://www.bohemiancoding.com/sketch -->
    <title>Untitled</title>
    <desc>Created with Sketch.</desc>
    <defs></defs>
    <g id="Page-1" stroke="none" stroke-width="1" fill="none" fill-rule="evenodd">
        <g id="Group" stroke="#FFFFFF" stroke-width="1.5">
            <path d="M4.43397046,33.5 L2.99913119,7 C2.99913119,7 2.5,4 6.34708949,5 C8,2.5 9.5,0.777803821 14.0361763,0.777803821 C20,0.777803821 21.1737619,5 21.1737619,5 C21.1737619,5 25,4 25,7 C25,10 23.5651607,33.5 23.5651607,33.5 L4.43397046,33.5 Z" id="Path-5"></path>
            <path d="M28.25,38.25 L0.75,38.25 L0.75,36 C0.75,34.7570328 1.75510944,33.75 2.99428189,33.75 L26.0057181,33.75 C27.2435883,33.75 28.25,34.7591164 28.25,36 L28.25,38.25 Z" id="Rectangle-2"></path>
            <path d="M8,11.75 L21.0384048,11.75" id="Path-6"></path>
            <path d="M10,15.75 L19,15.75" id="Path-6"></path>
        </g>
    </g>
</svg>