<?xml version="1.0" encoding="UTF-8"?>
<svg width="60px" height="30px" viewBox="0 0 60 30" version="1.1" xmlns="http://www.w3.org/2000/svg" xmlns:xlink="http://www.w3.org/1999/xlink">
    <!-- Generator: Sketch 43.2 (39069) - http://www.bohemiancoding.com/sketch -->
    <title>Slice 1</title>
    <desc>Created with Sketch.</desc>
    <defs></defs>
    <g id="Page-1" stroke="none" stroke-width="1" fill="none" fill-rule="evenodd">
        <path d="M45.1059413,0.00189988486 C44.0892806,-0.0376032666 43.150044,0.541838685 42.7307659,1.46721365 C42.3114878,2.39258862 42.4958091,3.47929535 43.1968843,4.21531694 L50.877053,12.5032473 L2.53544279,12.5032473 C1.63391111,12.4905201 0.795351545,12.9633367 0.340864948,13.7406463 C-0.113621649,14.517956 -0.113621649,15.4793302 0.340864948,16.2566398 C0.795351545,17.0339495 1.63391111,17.5067661 2.53544279,17.4940388 L50.877053,17.4940388 L43.1968843,25.7819692 C42.574029,26.4339461 42.3515419,27.3704136 42.6147654,28.2321584 C42.8779889,29.0939033 43.5860571,29.7471384 44.4673669,29.9412937 C45.3486767,30.135449 46.2664035,29.8403815 46.8685227,29.1692743 L60,14.9986431 L46.8685227,0.828011872 C46.4169809,0.326179983 45.7811671,0.0281776327 45.1059413,0.00189988486 Z" id="Shape" fill="#FFFFFF" fill-rule="nonzero"></path>
    </g>
</svg>