<?xml version="1.0" encoding="UTF-8"?>
<svg width="63px" height="63px" viewBox="0 0 63 63" version="1.1" xmlns="http://www.w3.org/2000/svg" xmlns:xlink="http://www.w3.org/1999/xlink">
    <!-- Generator: Sketch 43.2 (39069) - http://www.bohemiancoding.com/sketch -->
    <title>Untitled</title>
    <desc>Created with Sketch.</desc>
    <defs></defs>
    <g id="Page-1" stroke="none" stroke-width="1" fill="none" fill-rule="evenodd">
        <path d="M58.2745098,0.00208041771 C58.061765,-0.00673123531 57.8487981,0.0136039904 57.6470588,0.041296104 C56.8018372,0.157317337 56.0784125,0.570736694 55.5686275,1.33541375 L55.5294118,1.41384512 L55.4901961,1.45306081 L44.745098,21.6491392 C43.5318689,21.2005319 42.3344866,20.9328475 41.2156863,20.9040412 C40.0113631,20.8730326 38.8732135,21.0615176 37.8431373,21.4922765 C35.8602391,22.3214881 34.3575191,23.9451945 33.372549,26.0020804 C33.3274484,26.0637237 33.2880693,26.1293556 33.254902,26.1981588 C33.2499689,26.2089962 33.2598074,26.2265134 33.254902,26.2373745 C33.2409204,26.2630535 33.2278406,26.2892133 33.2156863,26.3158059 C33.1992563,26.3671962 33.1861572,26.4195925 33.1764706,26.4726687 C32.4963702,28.1713943 31.7111266,29.7027336 30.8235294,31.0609039 C30.813706,31.0759352 30.7941584,31.0851273 30.7843137,31.1001196 C30.6724221,31.200387 30.5794436,31.3199309 30.5098039,31.4530608 C30.5037503,31.4619254 30.5158651,31.4834269 30.5098039,31.4922765 C30.4647033,31.5539198 30.4253242,31.6195516 30.3921569,31.6883549 C27.3947031,35.9773174 23.4961518,38.5608142 19.8039216,40.1589432 C14.7754604,42.3354414 9.96042591,42.5647094 8.90196078,42.4726687 C8.39817987,42.4230402 7.91390426,42.6809304 7.67390568,43.126642 C7.4339071,43.5723536 7.48517803,44.118615 7.80392157,44.5118843 C22.1022168,62.1593297 43.1372549,62.7863941 43.1372549,62.7863941 C43.3868134,62.7926929 43.6325807,62.7244243 43.8431373,62.5903157 C43.8431373,62.5903157 46.4417857,60.942391 49.5686275,57.0216883 C51.9181189,54.0756942 54.5947871,49.8140346 56.9019608,43.923649 C56.9153191,43.9108667 56.9283942,43.8977917 56.9411765,43.8844334 C57.2317415,43.6132069 57.3771248,43.220672 57.3333333,42.8256098 C57.333537,42.8125387 57.333537,42.7994652 57.3333333,42.7863941 C57.9415291,41.1444503 58.5286927,39.4192763 59.0588235,37.5314922 C59.0793036,37.4544767 59.0924343,37.3756927 59.0980392,37.2961981 C59.0982426,37.283127 59.0982426,37.2700535 59.0980392,37.2569824 C60.7692976,32.9421839 58.9082466,28.1936324 54.9019608,26.1197275 L62.6666667,4.59031571 L62.6666667,4.55110003 L62.7058824,4.51188434 C62.9614657,3.61734103 62.6659576,2.76183596 62.1960784,2.08051179 C61.752261,1.43697585 61.0984985,0.932279307 60.3137255,0.590315712 L60.3137255,0.551100026 C60.2895561,0.53901281 60.259589,0.562791947 60.2352941,0.551100026 C60.2208251,0.544136575 60.2105851,0.518707241 60.1960784,0.511884339 C59.5811865,0.2227926 58.9127454,0.028515378 58.2745098,0.00208041771 Z M58.1176471,2.6295314 C58.4012147,2.58603047 58.773504,2.58491047 59.1764706,2.78639414 L59.2156863,2.82560983 L59.254902,2.82560983 C59.6613773,2.9881997 59.999291,3.26379675 60.1568627,3.4922765 C60.3144345,3.72075625 60.2699043,3.86132961 60.2745098,3.84521767 L52.627451,25.0609039 C51.7063203,24.6452892 51.0663266,24.3506018 49.7647059,23.7667863 C48.7934733,23.3311596 47.8730905,22.9080142 47.0588235,22.5511 L57.6470588,2.74717846 C57.6392345,2.7589143 57.8340794,2.67303232 58.1176471,2.6295314 Z M5.01960784,10.0805118 C2.26221879,10.0805118 0,12.3427308 0,15.1001196 C0,17.8575082 2.26221879,20.1197275 5.01960784,20.1197275 C7.77699689,20.1197275 10.0392157,17.8575082 10.0392157,15.1001196 C10.0392157,12.3427308 7.77699689,10.0805118 5.01960784,10.0805118 Z M5.01960784,12.5903157 C6.42059796,12.5903157 7.52941176,13.6991295 7.52941176,15.1001196 C7.52941176,16.5011098 6.42059796,17.6099236 5.01960784,17.6099236 C3.61861773,17.6099236 2.50980392,16.5011098 2.50980392,15.1001196 C2.50980392,13.6991295 3.61861773,12.5903157 5.01960784,12.5903157 Z M16.3137255,13.8452177 C14.9275997,13.8452177 13.8039216,14.9688958 13.8039216,16.3550216 C13.8039216,17.7411474 14.9275997,18.8648255 16.3137255,18.8648255 C17.6998513,18.8648255 18.8235294,17.7411474 18.8235294,16.3550216 C18.8235294,14.9688958 17.6998513,13.8452177 16.3137255,13.8452177 Z M14.4313725,22.6295314 C10.6343886,22.6295314 7.52941176,25.734509 7.52941176,29.5314922 C7.52941176,33.3284754 10.6343886,36.433453 14.4313725,36.433453 C18.2283558,36.433453 21.3333333,33.3284754 21.3333333,29.5314922 C21.3333333,25.734509 18.2283558,22.6295314 14.4313725,22.6295314 Z M41.1764706,23.4138451 C42.0505788,23.4377385 43.0034196,23.6169498 44.0784314,24.0412961 C44.1041104,24.0552776 44.1302701,24.0683575 44.1568627,24.0805118 C44.4413335,24.526053 44.9744808,24.7455842 45.4901961,24.6295314 C45.6303875,24.6892196 45.616512,24.6829388 45.7647059,24.7471785 C46.6104433,25.1137943 47.680768,25.5639126 48.745098,26.0412961 C50.3021327,26.7396716 51.2885747,27.1627681 52.1960784,27.5707079 C52.2210536,27.5979947 52.2472229,27.6241641 52.2745098,27.6491392 C52.5437242,28.0216869 52.9950563,28.2172641 53.4509804,28.1589432 C53.4640515,28.1591474 53.477125,28.1591474 53.4901961,28.1589432 C56.4906127,29.5326894 57.8138215,32.800237 56.7843137,35.9628647 C56.2902036,35.9467643 55.9112696,35.9715236 54.9803922,35.7667863 C54.2827407,35.613303 53.6068229,35.3679283 53.0980392,35.0609039 C52.5892555,34.7538796 52.2929267,34.4494868 52.1568627,34.0412961 C52.0467202,33.6891084 51.7871653,33.4032401 51.4472161,33.259706 C51.1072668,33.1161718 50.7213765,33.1295189 50.3921569,33.2961981 C49.9681518,33.5082012 48.9051871,33.4282213 47.9607843,32.9432569 C47.4885823,32.7007747 47.0691075,32.3653055 46.7843137,32.0805118 C46.49952,31.7957181 46.4239561,31.5262053 46.4313725,31.5707079 C46.3631255,31.203748 46.1350834,30.886206 45.8091604,30.7042955 C45.4832374,30.5223849 45.0932563,30.4949838 44.745098,30.6295314 C44.7125835,30.6420804 44.2942281,30.6849604 43.8039216,30.5903157 C43.3136151,30.495671 42.7431893,30.2943345 42.1960784,30.0412961 C41.6489675,29.7882577 41.1401487,29.478258 40.8235294,29.2177667 C40.5069101,28.9572754 40.4764762,28.6884114 40.5098039,29.0216883 C40.4279646,28.3594041 39.8421578,27.876975 39.1764706,27.923649 C37.9156681,28.0437306 36.7376025,27.1157005 36.0392157,26.5118843 C36.7761995,25.269697 37.6850535,24.2820917 38.8235294,23.806002 C39.5189434,23.5151923 40.3023624,23.3899505 41.1764706,23.4138451 Z M14.4313725,25.1393353 C16.8719573,25.1393353 18.8235294,27.0909074 18.8235294,29.5314922 C18.8235294,31.972077 16.8719573,33.923649 14.4313725,33.923649 C11.9907875,33.923649 10.0392157,31.972077 10.0392157,29.5314922 C10.0392157,27.0909074 11.9907875,25.1393353 14.4313725,25.1393353 Z M34.9019608,28.8648255 C35.7729518,29.4929165 36.9870394,30.1449033 38.4313725,30.2765902 C38.6594309,30.6149733 38.9139589,30.8910969 39.2156863,31.1393353 C39.7618121,31.5886479 40.4294638,31.9884522 41.1372549,32.3158059 C41.845046,32.6431596 42.5844242,32.9163355 43.3333333,33.0609039 C43.7209989,33.1357338 44.117514,32.9896883 44.5098039,32.9824726 C44.6937751,33.2683744 44.7784132,33.6432387 45.0196078,33.8844334 C45.526971,34.3917965 46.1349471,34.8249548 46.8235294,35.178551 C47.8455793,35.7033874 49.0710149,35.8836378 50.2745098,35.7275706 C50.6872408,36.3450138 51.1800471,36.8649548 51.7647059,37.2177667 C52.6206281,37.7342718 53.5603965,38.0457598 54.4313725,38.2373745 C55.0438889,38.3721284 55.6050045,38.4271634 56.1176471,38.4726687 C55.7705951,39.6007653 55.3940781,40.6606505 55.0196078,41.6883549 C54.5666924,41.6751032 54.0156449,41.6473874 53.4117647,41.5314922 C52.0389597,41.2680243 50.7410033,40.657857 50.1960784,39.6099236 C49.9022824,39.0621646 49.251797,38.8119779 48.6666667,39.0216883 C48.0442152,39.2413764 46.9176257,39.1486128 45.9607843,38.7079628 C45.0039429,38.2673127 44.2813917,37.4999879 44.1176471,36.9432569 C44.0126238,36.6049486 43.7695224,36.3267781 43.4483301,36.1773864 C43.1271379,36.0279946 42.7577704,36.0212959 42.4313725,36.1589432 C42.1296602,36.2882483 40.9390996,36.2506916 39.9607843,35.806002 C38.982469,35.3613124 38.3471172,34.6095985 38.2745098,34.1981588 C38.2102922,33.8524078 38.0039591,33.5494606 37.7057485,33.363079 C37.4075378,33.1766973 37.0448101,33.1239815 36.7058824,33.2177667 C35.5174262,33.5377353 34.5951297,33.1150906 33.8431373,32.5511 C33.5855485,32.3579091 33.3925195,32.1469187 33.2156863,31.9628647 C33.8212417,30.9985617 34.3889255,29.9710291 34.9019608,28.8648255 Z M31.7647059,34.0412961 C31.9498152,34.2108083 32.1271442,34.3817523 32.3529412,34.5511 C33.2792483,35.2458301 34.7065437,35.7444076 36.3137255,35.6491392 C36.8977594,36.7416343 37.8425487,37.5811361 38.9411765,38.0805118 C40.0261773,38.5736945 41.1790632,38.7333419 42.3137255,38.5903157 C42.9389678,39.6158944 43.8129217,40.480941 44.9019608,40.9824726 C46.0635834,41.517431 47.3676097,41.6527596 48.627451,41.4530608 C49.8008546,42.9166705 51.4665412,43.7190699 52.9411765,44.0020804 C53.3344515,44.0775578 53.7222275,44.1247044 54.0784314,44.1589432 C51.991173,49.2029714 49.6501898,52.8921912 47.6078431,55.4530608 C44.9911379,58.7341112 43.222144,59.9706527 42.8235294,60.2373745 C42.3782613,60.2180541 39.1069904,59.9867694 34.5098039,58.7079628 C34.8879247,58.4612628 35.2919442,58.2087389 35.7254902,57.8844334 C37.8202353,56.3174975 40.5599423,53.7572302 43.2156863,49.806002 C43.4961063,49.4007139 43.5133597,48.8688129 43.2597943,48.4462039 C43.0062288,48.0235948 42.5287852,47.788512 42.0392157,47.8452177 C41.6724577,47.8866903 41.3425498,48.0875038 41.1372549,48.3942373 C38.6479009,52.097911 36.0856471,54.470977 34.1960784,55.8844334 C32.4009889,57.2272174 31.3613754,57.6462191 31.254902,57.6883549 C28.4324116,56.6950636 25.3046074,55.3291606 22.1176471,53.4138451 C22.5762711,53.26182 23.066496,53.0619731 23.6078431,52.8256098 C25.9902444,51.7854065 29.1741967,49.8461952 32.4313725,46.1981588 C32.8232112,45.806648 32.9120482,45.2045554 32.6499778,44.7165622 C32.3879074,44.228569 31.8369116,43.9700903 31.2941176,44.0805118 C31.0026572,44.1319489 30.7387524,44.2847359 30.5490196,44.5118843 C27.5316856,47.8912989 24.6999517,49.6069896 22.627451,50.5118843 C20.5549503,51.4167791 19.372549,51.4922765 19.372549,51.4922765 C19.3194742,51.5019694 19.2670783,51.5150684 19.2156863,51.5314922 C16.6146748,49.6981394 14.0139645,47.4673316 11.5686275,44.7863941 C13.9580675,44.5989934 17.0318469,44.1138445 20.8235294,42.4726687 C24.5695134,40.8512726 28.5643294,38.2028585 31.7647059,34.0412961 Z" id="Shape" fill="#B98B54" fill-rule="nonzero"></path>
    </g>
</svg>