<?xml version="1.0" encoding="UTF-8"?>
<svg width="41px" height="32px" viewBox="0 0 41 32" version="1.1" xmlns="http://www.w3.org/2000/svg" xmlns:xlink="http://www.w3.org/1999/xlink">
    <!-- Generator: Sketch 43.2 (39069) - http://www.bohemiancoding.com/sketch -->
    <title>Untitled</title>
    <desc>Created with Sketch.</desc>
    <defs></defs>
    <g id="Page-1" stroke="none" stroke-width="1" fill="none" fill-rule="evenodd">
        <g id="Group-2" stroke="#FFFFFF" stroke-width="1.5">
            <path d="M4.75,25.25 L4.75,7.00138694 C4.75,5.76015316 5.7581054,4.75 6.99028637,4.75 L10.2745988,4.75 L10.6080665,4.75 L10.8314502,4.50241073 C10.9214478,4.40266111 11.1212884,4.20832967 11.429811,3.95047582 C11.9561692,3.51056157 12.5894148,3.06832487 13.3284281,2.65432013 C15.4517205,1.46482443 17.9898031,0.75 20.9459459,0.75 C23.8909457,0.75 26.2531986,1.45821475 28.096819,2.63256873 C28.7340463,3.03847142 29.2604192,3.47106585 29.6816751,3.90031979 C29.9260271,4.14931104 30.0765487,4.3344054 30.1386101,4.42472904 L30.3621041,4.75 L30.7567568,4.75 L34.0063817,4.75 C35.2453248,4.75 36.25,5.75712347 36.25,7.00138694 L36.25,25.25 L4.75,25.25 Z" id="Rectangle-4"></path>
            <path d="M40.25,31.25 L0.75,31.25 L0.75,29 C0.75,27.7566776 1.75572829,26.75 2.99821673,26.75 L38.0017833,26.75 C39.242046,26.75 40.25,27.7593364 40.25,29 L40.25,31.25 Z" id="Rectangle-2"></path>
            <path d="M13,11.75 L28.09375,11.75" id="Path-7"></path>
            <path d="M15.15625,16.75 L25.9375,16.75" id="Path-7"></path>
        </g>
    </g>
</svg>