<?xml version="1.0" encoding="UTF-8"?>
<svg width="46px" height="62px" viewBox="0 0 46 62" version="1.1" xmlns="http://www.w3.org/2000/svg" xmlns:xlink="http://www.w3.org/1999/xlink">
    <!-- Generator: Sketch 43.2 (39069) - http://www.bohemiancoding.com/sketch -->
    <title>Untitled</title>
    <desc>Created with Sketch.</desc>
    <defs></defs>
    <g id="Page-1" stroke="none" stroke-width="1" fill="none" fill-rule="evenodd">
        <path d="M15.7459955,0.0122128269 C15.0921138,-0.01269759 14.4504107,0.000632391246 13.8016782,0.0509812776 C12.2298261,0.172974551 10.6913802,0.623047471 9.174203,1.25280325 C9.02160053,1.31614532 8.85939283,1.30009952 8.70756685,1.3691086 C8.15705524,1.6197431 7.86720904,2.22887783 8.02075518,2.8124977 C8.17430132,3.39611757 8.7267187,3.78500049 9.32974838,3.7339841 C16.1306306,3.3056478 22.0514072,7.30724008 26.3230816,11.5652112 C30.594756,15.8231817 33.0893058,20.2105757 33.0893058,20.2105757 C33.3493979,20.6358759 33.8393988,20.8648675 34.3336689,20.7921025 L40.4388252,19.9391965 L21.3456293,38.9745059 L17.0681312,34.7487447 C16.7828887,34.436626 16.3580087,34.2905598 15.9404272,34.3610602 C15.4761436,34.4450359 15.0994317,34.7835724 14.9676266,35.2352788 C14.8358215,35.6869852 14.9715969,36.174157 15.3182457,36.493325 L19.5957437,40.7190862 L0.463661489,59.7931639 C0.092623985,60.0912537 -0.0751056093,60.5743993 0.0317176225,61.0373795 C0.138540854,61.5003598 0.501159635,61.8618792 0.965547809,61.9683785 C1.42993598,62.0748779 1.91455082,61.9076568 2.21354706,61.5377442 L22.0455835,41.7270659 C22.0719528,41.7150502 22.0978929,41.7021195 22.1233562,41.6882974 L22.1622426,41.649529 C22.1893003,41.6248386 22.2152498,41.5989678 22.2400153,41.5719921 L22.3566743,41.4556867 C22.3705384,41.4303006 22.3835084,41.4044392 22.3955607,41.3781498 L44.5607779,19.2801329 C44.6996924,19.1883616 44.8187047,19.0697101 44.910755,18.9312168 L45.6107092,18.2721532 C46.001733,17.9033632 46.1106202,17.3257442 45.8805748,16.840585 C45.6505293,16.3554258 45.1336987,16.0727039 44.5996642,16.1398884 C44.3347827,16.1781286 44.0893241,16.3004857 43.89971,16.4888044 C40.4214962,13.0682733 35.2152678,8.24451421 29.2395576,4.66442692 C24.9999939,2.12447571 20.3231685,0.186585751 15.7459955,0.0122128269 Z M17.5736537,2.80354128 C20.9993256,3.32172734 24.5338157,4.74625391 27.9563081,6.79669172 C33.2072478,9.94256429 37.7699476,14.0535242 41.1776658,17.3417103 L34.800305,18.2333847 C34.2267719,17.2746713 32.0307013,13.7656687 28.0729672,9.82063088 C25.297332,7.0539001 21.6956649,4.424215 17.5736537,2.80354128 Z" id="Shape" fill="#B98B54" fill-rule="nonzero"></path>
    </g>
</svg>